# xmcd
#
# Track frame offsets:
#	150
#	16877
#	35014
#	51597
#	66489
#	78838
#	92291
#	108726
#	124219
#	140313
#	155235
#	170826
#	187252
#	205283
#	218724
#	229891
#
# Disc length: 3272 seconds
#
# Revision: 4
# Processed by: cddbd v1.5.1PL0 Copyright (c) Steve Scherf et al.
# Submitted via: audiograbber 1.83.01
#
DISCID=f20cc610
DTITLE=1996-09 Country Radio - 1996-09 Country Radio
DYEAR=1996
DGENRE=Country
TTITLE0=Brooks and Dunn - Mama Don't Get Dressed Up For Nothing
TTITLE1=Doug Supernaw - Long Tall Texan
TTITLE2=Emilio - Have I Told You Lately That I Love You
TTITLE3=Lee Roy Parnell - We All Get Lucky Sometimes
TTITLE4=Mila Mason - That's Enough Of That
TTITLE5=Trace Adkins - Every Light In The House Is On
TTITLE6=Junior Brown - Surf Melody
TTITLE7=Kevin Sharp - Nobody Knows
TTITLE8=The Sky Kings - That Just About Says It All
TTITLE9=Suzy Bogguss - No Way Out
TTITLE10=Dolly Parton - Just When I Needed You Most
TTITLE11=Jamie Warren - One Step Back
TTITLE12=Amy Stephens - He Looked Right Through Me
TTITLE13=Ruby Lovett - He's Your Problem Now
TTITLE14=BR5_49 - Cherokee Boogie
TTITLE15=Cledus T Judd - (She's Got A Butt) Bigger Than The Beatles
EXTD=
EXTT0=
EXTT1=
EXTT2=
EXTT3=
EXTT4=
EXTT5=
EXTT6=
EXTT7=
EXTT8=
EXTT9=
EXTT10=
EXTT11=
EXTT12=
EXTT13=
EXTT14=
EXTT15=
PLAYORDER=
